<svg xmlns="http://www.w3.org/2000/svg" xmlns:xlink="http://www.w3.org/1999/xlink" width="500" zoomAndPan="magnify" viewBox="0 0 375 74.999997" height="100" preserveAspectRatio="xMidYMid meet" version="1.0"><defs><g/></defs><g fill="#ff00ff" fill-opacity="1"><g transform="translate(3.334876, 59.675629)"><g><path d="M 2.070312 -29.003906 L 2.070312 0 L 21.960938 0 L 21.960938 -4.972656 L 7.042969 -4.972656 L 7.042969 -12.015625 L 16.988281 -12.015625 L 16.988281 -16.988281 L 7.042969 -16.988281 L 7.042969 -24.03125 L 21.960938 -24.03125 L 21.960938 -29.003906 Z M 2.070312 -29.003906 "/></g></g></g><g fill="#ff00ff" fill-opacity="1"><g transform="translate(31.797254, 59.675629)"><g><path d="M 2.070312 -29.003906 L 2.070312 -24.03125 L 9.53125 -24.03125 L 9.53125 0 L 14.5 0 L 14.5 -24.03125 L 21.960938 -24.03125 L 21.960938 -29.003906 Z M 2.070312 -29.003906 "/></g></g></g><g fill="#ff00ff" fill-opacity="1"><g transform="translate(60.218203, 59.675629)"><g><path d="M 2.070312 -24.03125 L 2.070312 -4.972656 L 7.042969 -4.972656 L 7.042969 0 L 16.988281 0 L 16.988281 -4.972656 L 7.042969 -4.972656 L 7.042969 -24.03125 Z M 7.042969 -29.003906 L 7.042969 -24.03125 L 16.988281 -24.03125 L 16.988281 -19.058594 L 21.960938 -19.058594 L 21.960938 -24.03125 L 16.988281 -24.03125 L 16.988281 -29.003906 Z M 21.960938 -4.972656 L 21.960938 -9.945312 L 16.988281 -9.945312 L 16.988281 -4.972656 Z M 21.960938 -4.972656 "/></g></g></g><g fill="#ff00ff" fill-opacity="1"><g transform="translate(88.639154, 59.675629)"><g><path d="M 2.070312 -29.003906 L 2.070312 0 L 7.042969 0 L 7.042969 -12.015625 L 16.988281 -12.015625 L 16.988281 0 L 21.960938 0 L 21.960938 -29.003906 L 16.988281 -29.003906 L 16.988281 -16.988281 L 7.042969 -16.988281 L 7.042969 -29.003906 Z M 2.070312 -29.003906 "/></g></g></g><g fill="#ff00ff" fill-opacity="1"><g transform="translate(117.101529, 59.675629)"><g><path d="M 2.070312 -11.972656 L 21.960938 -11.972656 L 21.960938 -16.945312 L 2.070312 -16.945312 Z M 2.070312 -11.972656 "/></g></g></g><g fill="#ff00ff" fill-opacity="1"><g transform="translate(145.522475, 59.675629)"><g><path d="M 7.042969 -24.03125 L 16.988281 -24.03125 L 16.988281 -16.988281 L 7.042969 -16.988281 L 7.042969 -24.03125 L 2.070312 -24.03125 L 2.070312 0 L 7.042969 0 L 7.042969 -12.015625 L 16.988281 -12.015625 L 16.988281 0 L 21.960938 0 L 21.960938 -24.03125 L 16.988281 -24.03125 L 16.988281 -29.003906 L 7.042969 -29.003906 Z M 7.042969 -24.03125 "/></g></g></g><g fill="#ff00ff" fill-opacity="1"><g transform="translate(173.943422, 59.675629)"><g><path d="M 2.070312 -11.972656 L 21.960938 -11.972656 L 21.960938 -16.945312 L 2.070312 -16.945312 Z M 2.070312 -11.972656 "/></g></g></g><g fill="#ff00ff" fill-opacity="1"><g transform="translate(202.364368, 59.675629)"><g><path d="M 2.070312 -24.03125 L 2.070312 -16.988281 L 7.042969 -16.988281 L 7.042969 -12.015625 L 16.988281 -12.015625 L 16.988281 -4.972656 L 21.960938 -4.972656 L 21.960938 -12.015625 L 16.988281 -12.015625 L 16.988281 -16.988281 L 7.042969 -16.988281 L 7.042969 -24.03125 Z M 7.042969 -4.972656 L 7.042969 -9.945312 L 2.070312 -9.945312 L 2.070312 -4.972656 L 7.042969 -4.972656 L 7.042969 0 L 16.988281 0 L 16.988281 -4.972656 Z M 7.042969 -29.003906 L 7.042969 -24.03125 L 16.988281 -24.03125 L 16.988281 -19.058594 L 21.960938 -19.058594 L 21.960938 -24.03125 L 16.988281 -24.03125 L 16.988281 -29.003906 Z M 7.042969 -29.003906 "/></g></g></g><g fill="#ff00ff" fill-opacity="1"><g transform="translate(230.785325, 59.675629)"><g><path d="M 7.042969 -16.988281 L 7.042969 -29.003906 L 2.070312 -29.003906 L 2.070312 0 L 7.042969 0 L 7.042969 -12.015625 L 12.015625 -12.015625 L 12.015625 -7.042969 L 16.988281 -7.042969 L 16.988281 0 L 21.960938 0 L 21.960938 -7.042969 L 16.988281 -7.042969 L 16.988281 -12.015625 L 12.015625 -12.015625 L 12.015625 -16.988281 Z M 16.988281 -29.003906 L 16.988281 -21.960938 L 21.960938 -21.960938 L 21.960938 -29.003906 Z M 12.015625 -21.960938 L 12.015625 -16.988281 L 16.988281 -16.988281 L 16.988281 -21.960938 Z M 12.015625 -21.960938 "/></g></g></g><g fill="#ff00ff" fill-opacity="1"><g transform="translate(259.206282, 59.675629)"><g><path d="M 2.070312 -29.003906 L 2.070312 0 L 21.960938 0 L 21.960938 -4.972656 L 7.042969 -4.972656 L 7.042969 -12.015625 L 16.988281 -12.015625 L 16.988281 -16.988281 L 7.042969 -16.988281 L 7.042969 -24.03125 L 21.960938 -24.03125 L 21.960938 -29.003906 Z M 2.070312 -29.003906 "/></g></g></g><g fill="#ff00ff" fill-opacity="1"><g transform="translate(287.668669, 59.675629)"><g><path d="M 2.070312 -29.003906 L 2.070312 -24.03125 L 9.53125 -24.03125 L 9.53125 0 L 14.5 0 L 14.5 -24.03125 L 21.960938 -24.03125 L 21.960938 -29.003906 Z M 2.070312 -29.003906 "/></g></g></g><g fill="#ff00ff" fill-opacity="1"><g transform="translate(316.089626, 59.675629)"><g><path d="M 2.070312 -24.03125 L 2.070312 -4.972656 L 7.042969 -4.972656 L 7.042969 0 L 16.988281 0 L 16.988281 -4.972656 L 7.042969 -4.972656 L 7.042969 -24.03125 Z M 7.042969 -29.003906 L 7.042969 -24.03125 L 16.988281 -24.03125 L 16.988281 -19.058594 L 21.960938 -19.058594 L 21.960938 -24.03125 L 16.988281 -24.03125 L 16.988281 -29.003906 Z M 21.960938 -4.972656 L 21.960938 -9.945312 L 16.988281 -9.945312 L 16.988281 -4.972656 Z M 21.960938 -4.972656 "/></g></g></g><g fill="#ff00ff" fill-opacity="1"><g transform="translate(344.510583, 59.675629)"><g><path d="M 2.070312 -29.003906 L 2.070312 0 L 7.042969 0 L 7.042969 -12.015625 L 16.988281 -12.015625 L 16.988281 0 L 21.960938 0 L 21.960938 -29.003906 L 16.988281 -29.003906 L 16.988281 -16.988281 L 7.042969 -16.988281 L 7.042969 -29.003906 Z M 2.070312 -29.003906 "/></g></g></g><g fill="#00ffff" fill-opacity="1"><g transform="translate(6.450675, 60.452483)"><g><path d="M 2.070312 -29.003906 L 2.070312 0 L 21.960938 0 L 21.960938 -4.972656 L 7.042969 -4.972656 L 7.042969 -12.015625 L 16.988281 -12.015625 L 16.988281 -16.988281 L 7.042969 -16.988281 L 7.042969 -24.03125 L 21.960938 -24.03125 L 21.960938 -29.003906 Z M 2.070312 -29.003906 "/></g></g></g><g fill="#00ffff" fill-opacity="1"><g transform="translate(34.913053, 60.452483)"><g><path d="M 2.070312 -29.003906 L 2.070312 -24.03125 L 9.53125 -24.03125 L 9.53125 0 L 14.5 0 L 14.5 -24.03125 L 21.960938 -24.03125 L 21.960938 -29.003906 Z M 2.070312 -29.003906 "/></g></g></g><g fill="#00ffff" fill-opacity="1"><g transform="translate(63.334002, 60.452483)"><g><path d="M 2.070312 -24.03125 L 2.070312 -4.972656 L 7.042969 -4.972656 L 7.042969 0 L 16.988281 0 L 16.988281 -4.972656 L 7.042969 -4.972656 L 7.042969 -24.03125 Z M 7.042969 -29.003906 L 7.042969 -24.03125 L 16.988281 -24.03125 L 16.988281 -19.058594 L 21.960938 -19.058594 L 21.960938 -24.03125 L 16.988281 -24.03125 L 16.988281 -29.003906 Z M 21.960938 -4.972656 L 21.960938 -9.945312 L 16.988281 -9.945312 L 16.988281 -4.972656 Z M 21.960938 -4.972656 "/></g></g></g><g fill="#00ffff" fill-opacity="1"><g transform="translate(91.754953, 60.452483)"><g><path d="M 2.070312 -29.003906 L 2.070312 0 L 7.042969 0 L 7.042969 -12.015625 L 16.988281 -12.015625 L 16.988281 0 L 21.960938 0 L 21.960938 -29.003906 L 16.988281 -29.003906 L 16.988281 -16.988281 L 7.042969 -16.988281 L 7.042969 -29.003906 Z M 2.070312 -29.003906 "/></g></g></g><g fill="#00ffff" fill-opacity="1"><g transform="translate(120.217328, 60.452483)"><g><path d="M 2.070312 -11.972656 L 21.960938 -11.972656 L 21.960938 -16.945312 L 2.070312 -16.945312 Z M 2.070312 -11.972656 "/></g></g></g><g fill="#00ffff" fill-opacity="1"><g transform="translate(148.638274, 60.452483)"><g><path d="M 7.042969 -24.03125 L 16.988281 -24.03125 L 16.988281 -16.988281 L 7.042969 -16.988281 L 7.042969 -24.03125 L 2.070312 -24.03125 L 2.070312 0 L 7.042969 0 L 7.042969 -12.015625 L 16.988281 -12.015625 L 16.988281 0 L 21.960938 0 L 21.960938 -24.03125 L 16.988281 -24.03125 L 16.988281 -29.003906 L 7.042969 -29.003906 Z M 7.042969 -24.03125 "/></g></g></g><g fill="#00ffff" fill-opacity="1"><g transform="translate(177.059221, 60.452483)"><g><path d="M 2.070312 -11.972656 L 21.960938 -11.972656 L 21.960938 -16.945312 L 2.070312 -16.945312 Z M 2.070312 -11.972656 "/></g></g></g><g fill="#00ffff" fill-opacity="1"><g transform="translate(205.480167, 60.452483)"><g><path d="M 2.070312 -24.03125 L 2.070312 -16.988281 L 7.042969 -16.988281 L 7.042969 -12.015625 L 16.988281 -12.015625 L 16.988281 -4.972656 L 21.960938 -4.972656 L 21.960938 -12.015625 L 16.988281 -12.015625 L 16.988281 -16.988281 L 7.042969 -16.988281 L 7.042969 -24.03125 Z M 7.042969 -4.972656 L 7.042969 -9.945312 L 2.070312 -9.945312 L 2.070312 -4.972656 L 7.042969 -4.972656 L 7.042969 0 L 16.988281 0 L 16.988281 -4.972656 Z M 7.042969 -29.003906 L 7.042969 -24.03125 L 16.988281 -24.03125 L 16.988281 -19.058594 L 21.960938 -19.058594 L 21.960938 -24.03125 L 16.988281 -24.03125 L 16.988281 -29.003906 Z M 7.042969 -29.003906 "/></g></g></g><g fill="#00ffff" fill-opacity="1"><g transform="translate(233.901124, 60.452483)"><g><path d="M 7.042969 -16.988281 L 7.042969 -29.003906 L 2.070312 -29.003906 L 2.070312 0 L 7.042969 0 L 7.042969 -12.015625 L 12.015625 -12.015625 L 12.015625 -7.042969 L 16.988281 -7.042969 L 16.988281 0 L 21.960938 0 L 21.960938 -7.042969 L 16.988281 -7.042969 L 16.988281 -12.015625 L 12.015625 -12.015625 L 12.015625 -16.988281 Z M 16.988281 -29.003906 L 16.988281 -21.960938 L 21.960938 -21.960938 L 21.960938 -29.003906 Z M 12.015625 -21.960938 L 12.015625 -16.988281 L 16.988281 -16.988281 L 16.988281 -21.960938 Z M 12.015625 -21.960938 "/></g></g></g><g fill="#00ffff" fill-opacity="1"><g transform="translate(262.322081, 60.452483)"><g><path d="M 2.070312 -29.003906 L 2.070312 0 L 21.960938 0 L 21.960938 -4.972656 L 7.042969 -4.972656 L 7.042969 -12.015625 L 16.988281 -12.015625 L 16.988281 -16.988281 L 7.042969 -16.988281 L 7.042969 -24.03125 L 21.960938 -24.03125 L 21.960938 -29.003906 Z M 2.070312 -29.003906 "/></g></g></g><g fill="#00ffff" fill-opacity="1"><g transform="translate(290.784468, 60.452483)"><g><path d="M 2.070312 -29.003906 L 2.070312 -24.03125 L 9.53125 -24.03125 L 9.53125 0 L 14.5 0 L 14.5 -24.03125 L 21.960938 -24.03125 L 21.960938 -29.003906 Z M 2.070312 -29.003906 "/></g></g></g><g fill="#00ffff" fill-opacity="1"><g transform="translate(319.205425, 60.452483)"><g><path d="M 2.070312 -24.03125 L 2.070312 -4.972656 L 7.042969 -4.972656 L 7.042969 0 L 16.988281 0 L 16.988281 -4.972656 L 7.042969 -4.972656 L 7.042969 -24.03125 Z M 7.042969 -29.003906 L 7.042969 -24.03125 L 16.988281 -24.03125 L 16.988281 -19.058594 L 21.960938 -19.058594 L 21.960938 -24.03125 L 16.988281 -24.03125 L 16.988281 -29.003906 Z M 21.960938 -4.972656 L 21.960938 -9.945312 L 16.988281 -9.945312 L 16.988281 -4.972656 Z M 21.960938 -4.972656 "/></g></g></g><g fill="#00ffff" fill-opacity="1"><g transform="translate(347.626382, 60.452483)"><g><path d="M 2.070312 -29.003906 L 2.070312 0 L 7.042969 0 L 7.042969 -12.015625 L 16.988281 -12.015625 L 16.988281 0 L 21.960938 0 L 21.960938 -29.003906 L 16.988281 -29.003906 L 16.988281 -16.988281 L 7.042969 -16.988281 L 7.042969 -29.003906 Z M 2.070312 -29.003906 "/></g></g></g><g fill="#3b1b72" fill-opacity="1"><g transform="translate(4.892775, 60.064056)"><g><path d="M 2.070312 -29.003906 L 2.070312 0 L 21.960938 0 L 21.960938 -4.972656 L 7.042969 -4.972656 L 7.042969 -12.015625 L 16.988281 -12.015625 L 16.988281 -16.988281 L 7.042969 -16.988281 L 7.042969 -24.03125 L 21.960938 -24.03125 L 21.960938 -29.003906 Z M 2.070312 -29.003906 "/></g></g></g><g fill="#3b1b72" fill-opacity="1"><g transform="translate(33.355153, 60.064056)"><g><path d="M 2.070312 -29.003906 L 2.070312 -24.03125 L 9.53125 -24.03125 L 9.53125 0 L 14.5 0 L 14.5 -24.03125 L 21.960938 -24.03125 L 21.960938 -29.003906 Z M 2.070312 -29.003906 "/></g></g></g><g fill="#3b1b72" fill-opacity="1"><g transform="translate(61.776102, 60.064056)"><g><path d="M 2.070312 -24.03125 L 2.070312 -4.972656 L 7.042969 -4.972656 L 7.042969 0 L 16.988281 0 L 16.988281 -4.972656 L 7.042969 -4.972656 L 7.042969 -24.03125 Z M 7.042969 -29.003906 L 7.042969 -24.03125 L 16.988281 -24.03125 L 16.988281 -19.058594 L 21.960938 -19.058594 L 21.960938 -24.03125 L 16.988281 -24.03125 L 16.988281 -29.003906 Z M 21.960938 -4.972656 L 21.960938 -9.945312 L 16.988281 -9.945312 L 16.988281 -4.972656 Z M 21.960938 -4.972656 "/></g></g></g><g fill="#3b1b72" fill-opacity="1"><g transform="translate(90.197054, 60.064056)"><g><path d="M 2.070312 -29.003906 L 2.070312 0 L 7.042969 0 L 7.042969 -12.015625 L 16.988281 -12.015625 L 16.988281 0 L 21.960938 0 L 21.960938 -29.003906 L 16.988281 -29.003906 L 16.988281 -16.988281 L 7.042969 -16.988281 L 7.042969 -29.003906 Z M 2.070312 -29.003906 "/></g></g></g><g fill="#3b1b72" fill-opacity="1"><g transform="translate(118.659429, 60.064056)"><g><path d="M 2.070312 -11.972656 L 21.960938 -11.972656 L 21.960938 -16.945312 L 2.070312 -16.945312 Z M 2.070312 -11.972656 "/></g></g></g><g fill="#3b1b72" fill-opacity="1"><g transform="translate(147.080375, 60.064056)"><g><path d="M 7.042969 -24.03125 L 16.988281 -24.03125 L 16.988281 -16.988281 L 7.042969 -16.988281 L 7.042969 -24.03125 L 2.070312 -24.03125 L 2.070312 0 L 7.042969 0 L 7.042969 -12.015625 L 16.988281 -12.015625 L 16.988281 0 L 21.960938 0 L 21.960938 -24.03125 L 16.988281 -24.03125 L 16.988281 -29.003906 L 7.042969 -29.003906 Z M 7.042969 -24.03125 "/></g></g></g><g fill="#3b1b72" fill-opacity="1"><g transform="translate(175.501321, 60.064056)"><g><path d="M 2.070312 -11.972656 L 21.960938 -11.972656 L 21.960938 -16.945312 L 2.070312 -16.945312 Z M 2.070312 -11.972656 "/></g></g></g><g fill="#3b1b72" fill-opacity="1"><g transform="translate(203.922267, 60.064056)"><g><path d="M 2.070312 -24.03125 L 2.070312 -16.988281 L 7.042969 -16.988281 L 7.042969 -12.015625 L 16.988281 -12.015625 L 16.988281 -4.972656 L 21.960938 -4.972656 L 21.960938 -12.015625 L 16.988281 -12.015625 L 16.988281 -16.988281 L 7.042969 -16.988281 L 7.042969 -24.03125 Z M 7.042969 -4.972656 L 7.042969 -9.945312 L 2.070312 -9.945312 L 2.070312 -4.972656 L 7.042969 -4.972656 L 7.042969 0 L 16.988281 0 L 16.988281 -4.972656 Z M 7.042969 -29.003906 L 7.042969 -24.03125 L 16.988281 -24.03125 L 16.988281 -19.058594 L 21.960938 -19.058594 L 21.960938 -24.03125 L 16.988281 -24.03125 L 16.988281 -29.003906 Z M 7.042969 -29.003906 "/></g></g></g><g fill="#3b1b72" fill-opacity="1"><g transform="translate(232.343225, 60.064056)"><g><path d="M 7.042969 -16.988281 L 7.042969 -29.003906 L 2.070312 -29.003906 L 2.070312 0 L 7.042969 0 L 7.042969 -12.015625 L 12.015625 -12.015625 L 12.015625 -7.042969 L 16.988281 -7.042969 L 16.988281 0 L 21.960938 0 L 21.960938 -7.042969 L 16.988281 -7.042969 L 16.988281 -12.015625 L 12.015625 -12.015625 L 12.015625 -16.988281 Z M 16.988281 -29.003906 L 16.988281 -21.960938 L 21.960938 -21.960938 L 21.960938 -29.003906 Z M 12.015625 -21.960938 L 12.015625 -16.988281 L 16.988281 -16.988281 L 16.988281 -21.960938 Z M 12.015625 -21.960938 "/></g></g></g><g fill="#3b1b72" fill-opacity="1"><g transform="translate(260.764182, 60.064056)"><g><path d="M 2.070312 -29.003906 L 2.070312 0 L 21.960938 0 L 21.960938 -4.972656 L 7.042969 -4.972656 L 7.042969 -12.015625 L 16.988281 -12.015625 L 16.988281 -16.988281 L 7.042969 -16.988281 L 7.042969 -24.03125 L 21.960938 -24.03125 L 21.960938 -29.003906 Z M 2.070312 -29.003906 "/></g></g></g><g fill="#3b1b72" fill-opacity="1"><g transform="translate(289.226568, 60.064056)"><g><path d="M 2.070312 -29.003906 L 2.070312 -24.03125 L 9.53125 -24.03125 L 9.53125 0 L 14.5 0 L 14.5 -24.03125 L 21.960938 -24.03125 L 21.960938 -29.003906 Z M 2.070312 -29.003906 "/></g></g></g><g fill="#3b1b72" fill-opacity="1"><g transform="translate(317.647526, 60.064056)"><g><path d="M 2.070312 -24.03125 L 2.070312 -4.972656 L 7.042969 -4.972656 L 7.042969 0 L 16.988281 0 L 16.988281 -4.972656 L 7.042969 -4.972656 L 7.042969 -24.03125 Z M 7.042969 -29.003906 L 7.042969 -24.03125 L 16.988281 -24.03125 L 16.988281 -19.058594 L 21.960938 -19.058594 L 21.960938 -24.03125 L 16.988281 -24.03125 L 16.988281 -29.003906 Z M 21.960938 -4.972656 L 21.960938 -9.945312 L 16.988281 -9.945312 L 16.988281 -4.972656 Z M 21.960938 -4.972656 "/></g></g></g><g fill="#3b1b72" fill-opacity="1"><g transform="translate(346.068483, 60.064056)"><g><path d="M 2.070312 -29.003906 L 2.070312 0 L 7.042969 0 L 7.042969 -12.015625 L 16.988281 -12.015625 L 16.988281 0 L 21.960938 0 L 21.960938 -29.003906 L 16.988281 -29.003906 L 16.988281 -16.988281 L 7.042969 -16.988281 L 7.042969 -29.003906 Z M 2.070312 -29.003906 "/></g></g></g></svg>